<svg width="493" height="195" viewBox="0 0 493 195" fill="none" xmlns="http://www.w3.org/2000/svg">
<path d="M26.472 120V29.12H59.496C69.3947 29.12 77.672 31.168 84.328 35.264C90.984 39.2747 95.976 44.736 99.304 51.648C102.632 58.4747 104.296 66.0693 104.296 74.432C104.296 83.648 102.461 91.6693 98.792 98.496C95.1227 105.323 89.9173 110.613 83.176 114.368C76.52 118.123 68.6267 120 59.496 120H26.472ZM86.504 74.432C86.504 68.544 85.4373 63.3813 83.304 58.944C81.1707 54.4213 78.0987 50.9227 74.088 48.448C70.0773 45.888 65.2133 44.608 59.496 44.608H44.136V104.512H59.496C65.2987 104.512 70.2053 103.232 74.216 100.672C78.2267 98.0267 81.256 94.4427 83.304 89.92C85.4373 85.312 86.504 80.1493 86.504 74.432ZM112.23 100.16C112.23 95.808 113.425 92.0107 115.814 88.768C118.289 85.44 121.702 82.88 126.054 81.088C130.406 79.296 135.398 78.4 141.03 78.4C143.846 78.4 146.705 78.6133 149.606 79.04C152.507 79.4667 155.025 80.1493 157.158 81.088V77.504C157.158 73.2373 155.878 69.952 153.318 67.648C150.843 65.344 147.131 64.192 142.182 64.192C138.513 64.192 135.014 64.832 131.686 66.112C128.358 67.392 124.859 69.2693 121.19 71.744L115.686 60.48C120.123 57.5787 124.646 55.4027 129.254 53.952C133.947 52.5013 138.854 51.776 143.974 51.776C153.531 51.776 160.955 54.1653 166.246 58.944C171.622 63.7227 174.31 70.5493 174.31 79.424V100.8C174.31 102.592 174.609 103.872 175.206 104.64C175.889 105.408 176.955 105.877 178.406 106.048V120C176.87 120.256 175.462 120.469 174.182 120.64C172.987 120.811 171.963 120.896 171.11 120.896C167.697 120.896 165.094 120.128 163.302 118.592C161.595 117.056 160.529 115.179 160.102 112.96L159.718 109.504C156.817 113.259 153.19 116.16 148.838 118.208C144.486 120.256 140.049 121.28 135.526 121.28C131.089 121.28 127.078 120.384 123.494 118.592C119.995 116.715 117.222 114.197 115.174 111.04C113.211 107.797 112.23 104.171 112.23 100.16ZM153.958 103.616C154.897 102.592 155.665 101.568 156.262 100.544C156.859 99.52 157.158 98.5813 157.158 97.728V90.944C155.11 90.0907 152.891 89.4507 150.502 89.024C148.113 88.512 145.851 88.256 143.718 88.256C139.281 88.256 135.611 89.2373 132.71 91.2C129.894 93.0773 128.486 95.5947 128.486 98.752C128.486 100.459 128.955 102.08 129.894 103.616C130.833 105.152 132.198 106.389 133.99 107.328C135.782 108.267 137.915 108.736 140.39 108.736C142.95 108.736 145.467 108.267 147.942 107.328C150.417 106.304 152.422 105.067 153.958 103.616ZM253.954 120H236.802V82.368C236.802 76.992 235.863 73.0667 233.986 70.592C232.109 68.1173 229.506 66.88 226.178 66.88C223.874 66.88 221.527 67.4773 219.138 68.672C216.834 69.8667 214.743 71.5307 212.866 73.664C210.989 75.712 209.623 78.1013 208.77 80.832V120H191.618V52.928H207.106V65.344C208.813 62.4427 210.989 60.0107 213.634 58.048C216.279 56 219.309 54.464 222.722 53.44C226.221 52.3307 229.89 51.776 233.73 51.776C237.911 51.776 241.325 52.544 243.97 54.08C246.701 55.5307 248.749 57.536 250.114 60.096C251.565 62.5707 252.546 65.3867 253.058 68.544C253.655 71.7013 253.954 74.9013 253.954 78.144V120ZM270.148 120V52.928H287.3V120H270.148ZM270.148 43.584V26.56H287.3V43.584H270.148ZM335.157 121.28C329.781 121.28 324.917 120.384 320.565 118.592C316.213 116.715 312.501 114.197 309.429 111.04C306.357 107.797 303.968 104.128 302.261 100.032C300.64 95.8507 299.829 91.456 299.829 86.848C299.829 80.448 301.237 74.6027 304.053 69.312C306.954 64.0213 311.05 59.7973 316.341 56.64C321.717 53.3973 328.032 51.776 335.285 51.776C342.624 51.776 348.896 53.3973 354.101 56.64C359.306 59.7973 363.274 64.0213 366.005 69.312C368.821 74.5173 370.229 80.1493 370.229 86.208C370.229 87.232 370.186 88.2987 370.101 89.408C370.016 90.432 369.93 91.2853 369.845 91.968H318.005C318.346 95.3813 319.328 98.368 320.949 100.928C322.656 103.488 324.789 105.451 327.349 106.816C329.994 108.096 332.81 108.736 335.797 108.736C339.21 108.736 342.41 107.925 345.397 106.304C348.469 104.597 350.56 102.379 351.669 99.648L366.389 103.744C364.768 107.157 362.421 110.187 359.349 112.832C356.362 115.477 352.821 117.568 348.725 119.104C344.629 120.555 340.106 121.28 335.157 121.28ZM317.621 81.088H352.693C352.352 77.6747 351.37 74.7307 349.749 72.256C348.213 69.696 346.165 67.7333 343.605 66.368C341.045 64.9173 338.186 64.192 335.029 64.192C331.957 64.192 329.141 64.9173 326.581 66.368C324.106 67.7333 322.058 69.696 320.437 72.256C318.901 74.7307 317.962 77.6747 317.621 81.088ZM381.83 26.56H398.982V98.496C398.982 101.568 399.494 103.659 400.518 104.768C401.542 105.792 402.95 106.304 404.742 106.304C406.107 106.304 407.515 106.133 408.966 105.792C410.417 105.451 411.697 105.024 412.806 104.512L415.11 117.568C412.806 118.677 410.118 119.531 407.046 120.128C403.974 120.725 401.201 121.024 398.726 121.024C393.35 121.024 389.169 119.616 386.182 116.8C383.281 113.899 381.83 109.803 381.83 104.512V26.56ZM454.967 121.28C449.591 121.28 444.727 120.384 440.375 118.592C436.023 116.715 432.311 114.197 429.239 111.04C426.167 107.797 423.778 104.128 422.071 100.032C420.45 95.8507 419.639 91.456 419.639 86.848C419.639 80.448 421.047 74.6027 423.863 69.312C426.764 64.0213 430.86 59.7973 436.151 56.64C441.527 53.3973 447.842 51.776 455.095 51.776C462.434 51.776 468.706 53.3973 473.911 56.64C479.116 59.7973 483.084 64.0213 485.815 69.312C488.631 74.5173 490.039 80.1493 490.039 86.208C490.039 87.232 489.996 88.2987 489.911 89.408C489.826 90.432 489.74 91.2853 489.655 91.968H437.815C438.156 95.3813 439.138 98.368 440.759 100.928C442.466 103.488 444.599 105.451 447.159 106.816C449.804 108.096 452.62 108.736 455.607 108.736C459.02 108.736 462.22 107.925 465.207 106.304C468.279 104.597 470.37 102.379 471.479 99.648L486.199 103.744C484.578 107.157 482.231 110.187 479.159 112.832C476.172 115.477 472.631 117.568 468.535 119.104C464.439 120.555 459.916 121.28 454.967 121.28ZM437.431 81.088H472.503C472.162 77.6747 471.18 74.7307 469.559 72.256C468.023 69.696 465.975 67.7333 463.415 66.368C460.855 64.9173 457.996 64.192 454.839 64.192C451.767 64.192 448.951 64.9173 446.391 66.368C443.916 67.7333 441.868 69.696 440.247 72.256C438.711 74.7307 437.772 77.6747 437.431 81.088Z" fill="#828282"/>
<path d="M9.472 165V74.12H49.664C53.8453 74.12 57.6853 74.9733 61.184 76.68C64.768 78.3867 67.84 80.6907 70.4 83.592C73.0453 86.4933 75.0507 89.736 76.416 93.32C77.8667 96.904 78.592 100.573 78.592 104.328C78.592 108.168 77.9093 111.88 76.544 115.464C75.264 118.963 73.3867 122.035 70.912 124.68C68.4373 127.325 65.536 129.373 62.208 130.824L82.944 165H63.488L44.8 134.536H27.136V165H9.472ZM27.136 119.048H49.28C51.4987 119.048 53.4613 118.408 55.168 117.128C56.8747 115.763 58.24 113.971 59.264 111.752C60.288 109.533 60.8 107.059 60.8 104.328C60.8 101.427 60.2027 98.9093 59.008 96.776C57.8133 94.5573 56.2773 92.808 54.4 91.528C52.608 90.248 50.6453 89.608 48.512 89.608H27.136V119.048ZM96.788 165V97.928H113.94V165H96.788ZM96.788 88.584V71.56H113.94V88.584H96.788ZM165.125 166.28C159.664 166.28 154.757 165.384 150.405 163.592C146.053 161.715 142.341 159.155 139.269 155.912C136.197 152.584 133.808 148.829 132.101 144.648C130.48 140.467 129.669 136.072 129.669 131.464C129.669 125.149 131.077 119.389 133.893 114.184C136.794 108.893 140.89 104.669 146.181 101.512C151.472 98.3547 157.744 96.776 164.997 96.776C172.25 96.776 178.48 98.3547 183.685 101.512C188.89 104.669 192.773 108.808 195.333 113.928L178.565 119.048C177.114 116.573 175.194 114.696 172.805 113.416C170.416 112.051 167.77 111.368 164.869 111.368C161.626 111.368 158.64 112.221 155.909 113.928C153.264 115.549 151.173 117.896 149.637 120.968C148.101 123.955 147.333 127.453 147.333 131.464C147.333 135.389 148.101 138.888 149.637 141.96C151.258 144.947 153.392 147.336 156.037 149.128C158.682 150.835 161.626 151.688 164.869 151.688C166.917 151.688 168.837 151.347 170.629 150.664C172.506 149.981 174.17 149.043 175.621 147.848C177.072 146.653 178.138 145.288 178.821 143.752L195.589 148.872C194.053 152.2 191.792 155.187 188.805 157.832C185.904 160.477 182.448 162.568 178.437 164.104C174.512 165.555 170.074 166.28 165.125 166.28ZM241.23 166.28C235.769 166.28 230.862 165.384 226.51 163.592C222.158 161.715 218.446 159.155 215.374 155.912C212.302 152.584 209.913 148.829 208.206 144.648C206.585 140.467 205.774 136.072 205.774 131.464C205.774 125.149 207.182 119.389 209.998 114.184C212.899 108.893 216.995 104.669 222.286 101.512C227.577 98.3547 233.849 96.776 241.102 96.776C248.355 96.776 254.585 98.3547 259.79 101.512C264.995 104.669 268.878 108.808 271.438 113.928L254.67 119.048C253.219 116.573 251.299 114.696 248.91 113.416C246.521 112.051 243.875 111.368 240.974 111.368C237.731 111.368 234.745 112.221 232.014 113.928C229.369 115.549 227.278 117.896 225.742 120.968C224.206 123.955 223.438 127.453 223.438 131.464C223.438 135.389 224.206 138.888 225.742 141.96C227.363 144.947 229.497 147.336 232.142 149.128C234.787 150.835 237.731 151.688 240.974 151.688C243.022 151.688 244.942 151.347 246.734 150.664C248.611 149.981 250.275 149.043 251.726 147.848C253.177 146.653 254.243 145.288 254.926 143.752L271.694 148.872C270.158 152.2 267.897 155.187 264.91 157.832C262.009 160.477 258.553 162.568 254.542 164.104C250.617 165.555 246.179 166.28 241.23 166.28ZM317.207 166.28C311.831 166.28 306.967 165.384 302.615 163.592C298.263 161.715 294.551 159.197 291.479 156.04C288.407 152.797 286.018 149.128 284.311 145.032C282.69 140.851 281.879 136.456 281.879 131.848C281.879 125.448 283.287 119.603 286.103 114.312C289.004 109.021 293.1 104.797 298.391 101.64C303.767 98.3973 310.082 96.776 317.335 96.776C324.674 96.776 330.946 98.3973 336.151 101.64C341.356 104.797 345.324 109.021 348.055 114.312C350.871 119.517 352.279 125.149 352.279 131.208C352.279 132.232 352.236 133.299 352.151 134.408C352.066 135.432 351.98 136.285 351.895 136.968H300.055C300.396 140.381 301.378 143.368 302.999 145.928C304.706 148.488 306.839 150.451 309.399 151.816C312.044 153.096 314.86 153.736 317.847 153.736C321.26 153.736 324.46 152.925 327.447 151.304C330.519 149.597 332.61 147.379 333.719 144.648L348.439 148.744C346.818 152.157 344.471 155.187 341.399 157.832C338.412 160.477 334.871 162.568 330.775 164.104C326.679 165.555 322.156 166.28 317.207 166.28ZM299.671 126.088H334.743C334.402 122.675 333.42 119.731 331.799 117.256C330.263 114.696 328.215 112.733 325.655 111.368C323.095 109.917 320.236 109.192 317.079 109.192C314.007 109.192 311.191 109.917 308.631 111.368C306.156 112.733 304.108 114.696 302.487 117.256C300.951 119.731 300.012 122.675 299.671 126.088ZM367.08 71.56H384.232V143.496C384.232 146.568 384.744 148.659 385.768 149.768C386.792 150.792 388.2 151.304 389.992 151.304C391.357 151.304 392.765 151.133 394.216 150.792C395.667 150.451 396.947 150.024 398.056 149.512L400.36 162.568C398.056 163.677 395.368 164.531 392.296 165.128C389.224 165.725 386.451 166.024 383.976 166.024C378.6 166.024 374.419 164.616 371.432 161.8C368.531 158.899 367.08 154.803 367.08 149.512V71.56ZM412.185 71.56H429.337V143.496C429.337 146.568 429.849 148.659 430.873 149.768C431.897 150.792 433.305 151.304 435.097 151.304C436.462 151.304 437.87 151.133 439.321 150.792C440.772 150.451 442.052 150.024 443.161 149.512L445.465 162.568C443.161 163.677 440.473 164.531 437.401 165.128C434.329 165.725 431.556 166.024 429.081 166.024C423.705 166.024 419.524 164.616 416.537 161.8C413.636 158.899 412.185 154.803 412.185 149.512V71.56ZM457.418 165V97.928H474.57V165H457.418ZM457.418 88.584V71.56H474.57V88.584H457.418Z" fill="#595959"/>
</svg>
