<svg width="100" height="100" viewBox="0 0 100 100" fill="none" xmlns="http://www.w3.org/2000/svg">
<rect width="100" height="100" rx="20" fill="white"/>
<g clip-path="url(#clip0_3_37)">
<path d="M50 13.1113C62.015 13.1113 63.44 13.1563 68.1875 13.3738C80.3825 13.9288 86.0787 19.715 86.6337 31.82C86.8512 36.5637 86.8925 37.9888 86.8925 50.0038C86.8925 62.0225 86.8475 63.4438 86.6337 68.1875C86.075 80.2813 80.3938 86.0787 68.1875 86.6337C63.44 86.8512 62.0225 86.8963 50 86.8963C37.985 86.8963 36.56 86.8512 31.8163 86.6337C19.5913 86.075 13.925 80.2625 13.37 68.1838C13.1525 63.44 13.1075 62.0187 13.1075 50C13.1075 37.985 13.1563 36.5638 13.37 31.8163C13.9288 19.715 19.61 13.925 31.8163 13.37C36.5638 13.1563 37.985 13.1113 50 13.1113V13.1113ZM50 5C37.7787 5 36.2487 5.0525 31.4487 5.27C15.1063 6.02 6.02375 15.0875 5.27375 31.445C5.0525 36.2488 5 37.7787 5 50C5 62.2213 5.0525 63.755 5.27 68.555C6.02 84.8975 15.0875 93.98 31.445 94.73C36.2488 94.9475 37.7787 95 50 95C62.2213 95 63.755 94.9475 68.555 94.73C84.8825 93.98 93.9875 84.9125 94.7263 68.555C94.9475 63.755 95 62.2213 95 50C95 37.7787 94.9475 36.2487 94.73 31.4487C93.995 15.1212 84.9162 6.02375 68.5587 5.27375C63.755 5.0525 62.2213 5 50 5V5ZM50 26.8925C37.2387 26.8925 26.8925 37.2387 26.8925 50C26.8925 62.7613 37.2387 73.1113 50 73.1113C62.7613 73.1113 73.1075 62.765 73.1075 50C73.1075 37.2387 62.7613 26.8925 50 26.8925ZM50 65C41.7162 65 35 58.2875 35 50C35 41.7162 41.7162 35 50 35C58.2838 35 65 41.7162 65 50C65 58.2875 58.2838 65 50 65ZM74.0225 20.5813C71.0375 20.5813 68.6188 23 68.6188 25.9812C68.6188 28.9625 71.0375 31.3812 74.0225 31.3812C77.0038 31.3812 79.4187 28.9625 79.4187 25.9812C79.4187 23 77.0038 20.5813 74.0225 20.5813Z" fill="black"/>
</g>
<defs>
<clipPath id="clip0_3_37">
<rect width="90" height="90" fill="white" transform="translate(5 5)"/>
</clipPath>
</defs>
</svg>
