<svg width="100" height="100" viewBox="0 0 100 100" fill="none" xmlns="http://www.w3.org/2000/svg">
<rect width="100" height="100" rx="20" fill="white"/>
<path d="M27.3202 34.6106H10.6579C9.91836 34.6106 9.31915 35.2101 9.31915 35.9493V89.4784C9.31915 90.2179 9.91836 90.8171 10.6579 90.8171H27.3202C28.0598 90.8171 28.659 90.2179 28.659 89.4784V35.9493C28.659 35.2101 28.0598 34.6106 27.3202 34.6106Z" fill="black"/>
<path d="M18.9951 8C12.9323 8 8 12.927 8 18.983C8 25.0418 12.9323 29.9706 18.9951 29.9706C25.053 29.9706 29.9813 25.0415 29.9813 18.983C29.9816 12.927 25.053 8 18.9951 8Z" fill="black"/>
<path d="M69.7022 33.2802C63.01 33.2802 58.0629 36.1571 55.0624 39.4259V35.9493C55.0624 35.2101 54.4632 34.6106 53.7237 34.6106H37.7665C37.027 34.6106 36.4278 35.2101 36.4278 35.9493V89.4784C36.4278 90.2179 37.027 90.8171 37.7665 90.8171H54.3925C55.132 90.8171 55.7312 90.2179 55.7312 89.4784V62.9939C55.7312 54.0693 58.1553 50.5924 64.3766 50.5924C71.1521 50.5924 71.6905 56.1662 71.6905 63.4531V89.4787C71.6905 90.2182 72.2897 90.8174 73.0292 90.8174H89.6613C90.4008 90.8174 91 90.2182 91 89.4787V60.117C91 46.8464 88.4696 33.2802 69.7022 33.2802Z" fill="black"/>
</svg>
