<svg width="100" height="100" viewBox="0 0 100 100" fill="none" xmlns="http://www.w3.org/2000/svg">
<rect width="100" height="100" rx="20" fill="white"/>
<path d="M80.546 83.477H19.455C11.484 83.477 5 76.993 5 69.022V30.455C5 22.485 11.485 16 19.455 16H80.546C88.516 16 95 22.485 95 30.455V69.022C95 76.993 88.516 83.477 80.546 83.477ZM19.455 20.227C13.815 20.227 9.227 24.815 9.227 30.455V69.022C9.227 74.662 13.815 79.251 19.455 79.251H80.546C86.186 79.251 90.774 74.662 90.774 69.022V30.455C90.774 24.815 86.186 20.227 80.546 20.227H19.455V20.227Z" fill="#1D1D1B"/>
<path d="M16.044 30.656C26.848 41.184 37.652 51.711 48.456 62.239C50.47 64.201 53.561 61.117 51.544 59.151C40.74 48.624 29.936 38.096 19.132 27.569C17.118 25.606 14.027 28.691 16.044 30.656Z" fill="#1D1D1B"/>
<path d="M51.544 62.239C62.348 51.712 73.152 41.184 83.956 30.657C85.972 28.692 82.883 25.606 80.868 27.569C70.064 38.096 59.26 48.624 48.456 59.151C46.44 61.116 49.529 64.202 51.544 62.239Z" fill="#1D1D1B"/>
<path d="M83.837 69.691C76.648 62.873 69.458 56.056 62.269 49.238C60.23 47.305 57.137 50.387 59.181 52.326C66.37 59.144 73.56 65.961 80.749 72.779C82.788 74.712 85.881 71.629 83.837 69.691Z" fill="#1D1D1B"/>
<path d="M19.446 72.778C26.635 65.96 33.825 59.143 41.014 52.325C43.057 50.387 39.966 47.303 37.926 49.237C30.737 56.055 23.547 62.872 16.358 69.69C14.315 71.628 17.406 74.713 19.446 72.778Z" fill="#1D1D1B"/>
</svg>
